<svg xmlns="http://www.w3.org/2000/svg" viewBox="0 0 2140 1630" width="2140" height="1630">
  <defs>
    <style>
      .title { font: 700 24px Arial, sans-serif; fill: #1f2933; }
      .subtitle { font: 700 18px Arial, sans-serif; fill: #1f2933; }
      .label { font: 14px Arial, sans-serif; fill: #1f2933; }
      .small { font: 12px Arial, sans-serif; fill: #1f2933; }
      .tiny { font: 11px Arial, sans-serif; fill: #1f2933; }
      .outline { fill: none; stroke: #1f2933; stroke-width: 2; }
      .hidden { fill: none; stroke: #7b90b8; stroke-width: 1.5; stroke-dasharray: 8 6; }
      .centerline { fill: none; stroke: #98a1af; stroke-width: 1.2; stroke-dasharray: 10 6 2 6; }
      .divider { fill: none; stroke: #98a1af; stroke-width: 1.2; }
      .water { fill: #d9ecff; stroke: #2563eb; stroke-width: 1.5; }
      .metalA { fill: #f7f8fa; stroke: #1f2933; stroke-width: 2; }
      .metalB { fill: #e6e9ef; stroke: #1f2933; stroke-width: 2; }
      .oring { fill: none; stroke: #2f7d4a; stroke-width: 2; stroke-dasharray: 10 5; }
      .noteBox { fill: #fcfdff; stroke: #1f2933; stroke-width: 1.5; }
    </style>
  </defs>

  <rect width="2140" height="1630" fill="#fff"/>

  <text x="1070" y="48" text-anchor="middle" class="title">Cold-Block Combined Preview</text>
  <text x="1070" y="78" text-anchor="middle" class="label">One-sheet overview of the assembled block, lid, base, and interchangeable hose-plug option set</text>
  <text x="1070" y="102" text-anchor="middle" class="small">Units: mm | Scale: not to scale | Source of truth: tec_cold_block_mockup.scad</text>
  <text x="1070" y="124" text-anchor="middle" class="small">Reference diagram only; use formal CAD, STEP, and a release drawing for manufacturing.</text>

  <g transform="translate(70,190)">
    <text x="0" y="-24" class="subtitle">Assembled Block Overview</text>
    <rect x="0" y="0" width="980" height="560" rx="10" ry="10" class="noteBox"/>
    <g transform="translate(20,30)">
      <rect x="40" y="227" width="90" height="66" rx="33" ry="33" class="metalA"/>
      <rect x="130" y="215" width="10" height="90" rx="4" ry="4" class="metalA"/>
      <rect x="140" y="90" width="700" height="340" class="metalB"/>
      <line x1="140" y1="260" x2="840" y2="260" class="centerline"/>
      <rect x="840" y="215" width="10" height="90" rx="4" ry="4" class="metalA"/>
      <rect x="850" y="227" width="90" height="66" rx="33" ry="33" class="metalA"/>
      <rect x="200" y="130" width="580" height="260" class="oring"/>
      <rect x="210" y="145" width="560" height="230" class="hidden"/>
      <polygon points="210,236 350,145 350,375 210,284" class="hidden"/>
      <polygon points="630,145 770,236 770,284 630,375" class="hidden"/>
      <rect x="350" y="145" width="280" height="32.2" class="hidden"/>
      <rect x="350" y="184.4" width="280" height="32.2" class="hidden"/>
      <rect x="350" y="223.8" width="280" height="32.2" class="hidden"/>
      <rect x="350" y="263.2" width="280" height="32.2" class="hidden"/>
      <rect x="350" y="302.6" width="280" height="32.2" class="hidden"/>
      <rect x="350" y="342" width="280" height="32.2" class="hidden"/>
      <rect x="330" y="130" width="320" height="260" class="outline"/>
      <rect x="360" y="160" width="260" height="200" class="outline"/>
    </g>
    <line x1="30" y1="450" x2="950" y2="450" class="divider"/>
    <text x="30" y="482" class="small">140 x 92 x 24 body | 24 mm plug projection each side | 14.5 mm minimum bore through plug and block</text>
    <text x="30" y="508" class="small">6 straight lanes remain in the lid | O-ring groove remains in the base | Final wet baseline is 316L lid + CNC POM base + CNC POM plugs</text>
  </g>

  <g transform="translate(1090,190)">
    <text x="0" y="-24" class="subtitle">Lid Split-Plane Face</text>
    <rect x="0" y="0" width="980" height="560" rx="10" ry="10" class="noteBox"/>
    <g transform="translate(20,30)">
      <rect x="140" y="90" width="700" height="340" class="outline"/>
      <rect x="140" y="214" width="50" height="92" rx="12" ry="12" class="outline"/>
      <rect x="140" y="225" width="20" height="70" rx="8" ry="8" class="water"/>
      <rect x="790" y="214" width="50" height="92" rx="12" ry="12" class="outline"/>
      <rect x="820" y="225" width="20" height="70" rx="8" ry="8" class="water"/>
      <line x1="140" y1="260" x2="840" y2="260" class="centerline"/>
      <polygon points="210,236 350,145 350,375 210,284" class="water"/>
      <polygon points="630,145 770,236 770,284 630,375" class="water"/>
      <rect x="350" y="145" width="280" height="32.2" class="water"/>
      <rect x="350" y="184.4" width="280" height="32.2" class="water"/>
      <rect x="350" y="223.8" width="280" height="32.2" class="water"/>
      <rect x="350" y="263.2" width="280" height="32.2" class="water"/>
      <rect x="350" y="302.6" width="280" height="32.2" class="water"/>
      <rect x="350" y="342" width="280" height="32.2" class="water"/>
    </g>
    <line x1="30" y1="450" x2="950" y2="450" class="divider"/>
    <text x="30" y="482" class="small">Blue shows only the lid-owned wetted throat and six-lane channel volume. The dry trapped-head pocket is outlined but not filled.</text>
    <text x="30" y="508" class="small">The plug pocket is centered on the body datum so the port axis reads cleanly through the split plane.</text>
  </g>

  <g transform="translate(70,830)">
    <text x="0" y="-24" class="subtitle">Base Split-Plane Face</text>
    <rect x="0" y="0" width="980" height="560" rx="10" ry="10" class="noteBox"/>
    <g transform="translate(20,30)">
      <rect x="140" y="90" width="700" height="340" class="outline"/>
      <rect x="140" y="214" width="50" height="92" rx="12" ry="12" class="outline"/>
      <rect x="790" y="214" width="50" height="92" rx="12" ry="12" class="outline"/>
      <line x1="140" y1="260" x2="840" y2="260" class="centerline"/>
      <rect x="210" y="145" width="560" height="230" class="hidden"/>
      <polygon points="210,236 350,145 350,375 210,284" class="hidden"/>
      <polygon points="630,145 770,236 770,284 630,375" class="hidden"/>
      <rect x="200" y="130" width="580" height="260" class="oring"/>
    </g>
    <line x1="30" y1="450" x2="950" y2="450" class="divider"/>
    <text x="30" y="482" class="small">The base sheet owns the rectangular seal groove and lower transition floors. Hidden dashed geometry reminds the reader that the straight core is in the lid.</text>
    <text x="30" y="508" class="small">The plug-pocket outline is centered on the same body datum, but the straight-lane cavity remains intentionally absent here.</text>
  </g>

  <g transform="translate(1090,830)">
    <text x="0" y="-24" class="subtitle">Hose-Plug Option Set</text>
    <rect x="0" y="0" width="980" height="560" rx="10" ry="10" class="noteBox"/>
    <g transform="translate(40,54)">
      <g transform="translate(0,0)">
        <rect x="0" y="0" width="270" height="320" rx="10" ry="10" class="noteBox"/>
        <rect x="40" y="128" width="116" height="32" rx="16" ry="16" class="metalA"/>
        <rect x="156" y="112" width="12" height="64" rx="4" ry="4" class="metalA"/>
        <rect x="168" y="120" width="32" height="48" rx="8" ry="8" class="metalA"/>
        <rect x="200" y="104" width="46" height="80" rx="10" ry="10" class="metalA"/>
        <rect x="50" y="140" width="196" height="8" rx="4" ry="4" class="water"/>
        <circle cx="60" cy="256" r="42" class="water"/>
        <text x="60" y="262" text-anchor="middle" class="small">14.8</text>
        <text x="18" y="30" class="label">Option A</text>
        <text x="18" y="54" class="small">14.8 OD easy-fit fallback</text>
      </g>
      <g transform="translate(315,0)">
        <rect x="0" y="0" width="270" height="320" rx="10" ry="10" class="noteBox"/>
        <rect x="40" y="126" width="116" height="36" rx="18" ry="18" class="metalA"/>
        <rect x="156" y="112" width="12" height="64" rx="4" ry="4" class="metalA"/>
        <rect x="168" y="120" width="32" height="48" rx="8" ry="8" class="metalA"/>
        <rect x="200" y="104" width="46" height="80" rx="10" ry="10" class="metalA"/>
        <rect x="50" y="140" width="196" height="8" rx="4" ry="4" class="water"/>
        <circle cx="60" cy="256" r="45" class="water"/>
        <text x="60" y="262" text-anchor="middle" class="small">15.4</text>
        <text x="18" y="30" class="label">Option B</text>
        <text x="18" y="54" class="small">15.4 OD middle-ground check</text>
      </g>
      <g transform="translate(630,0)">
        <rect x="0" y="0" width="270" height="320" rx="10" ry="10" class="noteBox"/>
        <rect x="40" y="124" width="116" height="40" rx="20" ry="20" class="metalA"/>
        <rect x="156" y="112" width="12" height="64" rx="4" ry="4" class="metalA"/>
        <rect x="168" y="120" width="32" height="48" rx="8" ry="8" class="metalA"/>
        <rect x="200" y="104" width="46" height="80" rx="10" ry="10" class="metalA"/>
        <rect x="50" y="140" width="196" height="8" rx="4" ry="4" class="water"/>
        <circle cx="60" cy="256" r="48" class="water"/>
        <text x="60" y="262" text-anchor="middle" class="small">16.0</text>
        <text x="18" y="30" class="label">Option C</text>
        <text x="18" y="54" class="small">16.0 OD installed main guess</text>
      </g>
    </g>
    <line x1="30" y1="450" x2="950" y2="450" class="divider"/>
    <text x="30" y="482" class="small">All three share the same trapped root geometry, face-seal flange, and 14.5 mm bore. Only the outer hose OD changes.</text>
    <text x="30" y="508" class="small">Prototype round can print one of each size; the final selected size should be quoted as a pair.</text>
  </g>

  <g transform="translate(70,1450)">
    <rect x="0" y="0" width="2000" height="150" rx="10" ry="10" class="noteBox"/>
    <text x="20" y="34" class="label">This combined sheet is an index view. Use the dedicated whole-block, lid, base, and hose-plug sheets for detailed ownership and dimensional review.</text>
    <text x="20" y="68" class="label">Shared ownership rule: the lid owns the straight six-lane core and upper transition roof; the base owns the seal groove and lower transition floor; the hose plugs are separate trapped parts.</text>
    <text x="20" y="102" class="label">Support-frame geometry remains a separate reference/export set and is still required for the PLA prototype package.</text>
    <text x="20" y="136" class="label">Final wet-path release still requires the frozen CAD model, neutral CNC exports, and a manufacturing drawing even though these reference SVGs are kept current.</text>
  </g>
</svg>
