solid OpenSCAD_Model
  facet normal -1 0 0
    outer loop
      vertex 0 0 0
      vertex 0 14 4
      vertex 0 14 0
    endloop
  endfacet
  facet normal -1 -0 0
    outer loop
      vertex 0 14 4
      vertex 0 0 0
      vertex 0 0 4
    endloop
  endfacet
  facet normal 0 -1 0
    outer loop
      vertex 0 0 0
      vertex 16 0 4
      vertex 0 0 4
    endloop
  endfacet
  facet normal 0 -1 -0
    outer loop
      vertex 16 0 4
      vertex 0 0 0
      vertex 16 0 0
    endloop
  endfacet
  facet normal 1 0 0
    outer loop
      vertex 16 14 4
      vertex 16 11 3
      vertex 16 14 0
    endloop
  endfacet
  facet normal 1 0 0
    outer loop
      vertex 16 14 4
      vertex 16 9 3
      vertex 16 11 3
    endloop
  endfacet
  facet normal 1 0 0
    outer loop
      vertex 16 9 3
      vertex 16 0 4
      vertex 16 9 1
    endloop
  endfacet
  facet normal 1 -0 0
    outer loop
      vertex 16 0 4
      vertex 16 9 3
      vertex 16 14 4
    endloop
  endfacet
  facet normal 1 -0 0
    outer loop
      vertex 16 11 1
      vertex 16 14 0
      vertex 16 11 3
    endloop
  endfacet
  facet normal 1 -0 0
    outer loop
      vertex 16 9 1
      vertex 16 14 0
      vertex 16 11 1
    endloop
  endfacet
  facet normal 1 0 0
    outer loop
      vertex 16 9 1
      vertex 16 0 0
      vertex 16 14 0
    endloop
  endfacet
  facet normal 1 0 0
    outer loop
      vertex 16 0 0
      vertex 16 9 1
      vertex 16 0 4
    endloop
  endfacet
  facet normal 0 0 1
    outer loop
      vertex 10.2014 12.0529 4
      vertex 8.25893 9.62708 4
      vertex 10.0551 7.84877 4
    endloop
  endfacet
  facet normal 0 0 1
    outer loop
      vertex 10.0551 7.84877 4
      vertex 16 14 4
      vertex 10.2014 12.0529 4
    endloop
  endfacet
  facet normal 0 0 1
    outer loop
      vertex 16 14 4
      vertex 9.16304 12.0529 4
      vertex 10.2014 12.0529 4
    endloop
  endfacet
  facet normal 0 0 1
    outer loop
      vertex 9.16304 12.0529 4
      vertex 7.13408 12.0529 4
      vertex 7.65324 10.1224 4
    endloop
  endfacet
  facet normal 0 0 1
    outer loop
      vertex 16 14 4
      vertex 7.13408 12.0529 4
      vertex 9.16304 12.0529 4
    endloop
  endfacet
  facet normal -0 0 1
    outer loop
      vertex 0 14 4
      vertex 7.13408 12.0529 4
      vertex 16 14 4
    endloop
  endfacet
  facet normal 0 0 1
    outer loop
      vertex 6.25386 12.0529 4
      vertex 0 14 4
      vertex 6.25386 7.84877 4
    endloop
  endfacet
  facet normal 0 0 1
    outer loop
      vertex 7.13408 12.0529 4
      vertex 0 14 4
      vertex 6.25386 12.0529 4
    endloop
  endfacet
  facet normal 0 0 1
    outer loop
      vertex 16 14 4
      vertex 10.0551 7.84877 4
      vertex 16 0 4
    endloop
  endfacet
  facet normal -0 0 1
    outer loop
      vertex 9.02875 7.84877 4
      vertex 16 0 4
      vertex 10.0551 7.84877 4
    endloop
  endfacet
  facet normal 0 0 1
    outer loop
      vertex 7.13408 7.84877 4
      vertex 9.02875 7.84877 4
      vertex 7.13408 9.75537 4
    endloop
  endfacet
  facet normal 0 0 1
    outer loop
      vertex 9.02875 7.84877 4
      vertex 7.13408 7.84877 4
      vertex 16 0 4
    endloop
  endfacet
  facet normal 0 0 1
    outer loop
      vertex 0 0 4
      vertex 7.13408 7.84877 4
      vertex 6.25386 7.84877 4
    endloop
  endfacet
  facet normal 0 0 1
    outer loop
      vertex 7.13408 7.84877 4
      vertex 0 0 4
      vertex 16 0 4
    endloop
  endfacet
  facet normal 0 0 1
    outer loop
      vertex 0 0 4
      vertex 6.25386 7.84877 4
      vertex 0 14 4
    endloop
  endfacet
  facet normal 0 0 1
    outer loop
      vertex 7.65324 10.1224 4
      vertex 7.13408 12.0529 4
      vertex 7.13408 10.5192 4
    endloop
  endfacet
  facet normal 0 1 -0
    outer loop
      vertex 16 14 0
      vertex 0 14 4
      vertex 16 14 4
    endloop
  endfacet
  facet normal 0 1 0
    outer loop
      vertex 0 14 4
      vertex 16 14 0
      vertex 0 14 0
    endloop
  endfacet
  facet normal 0 0 -1
    outer loop
      vertex 0 0 0
      vertex 16 14 0
      vertex 16 0 0
    endloop
  endfacet
  facet normal -0 0 -1
    outer loop
      vertex 16 14 0
      vertex 0 0 0
      vertex 0 14 0
    endloop
  endfacet
  facet normal -0 0 1
    outer loop
      vertex 9.16304 12.0529 3.58
      vertex 8.25893 9.62708 3.58
      vertex 10.2014 12.0529 3.58
    endloop
  endfacet
  facet normal 0 -0 1
    outer loop
      vertex 8.25893 9.62708 3.58
      vertex 9.16304 12.0529 3.58
      vertex 7.65324 10.1224 3.58
    endloop
  endfacet
  facet normal 0 0 1
    outer loop
      vertex 8.25893 9.62708 3.58
      vertex 9.02875 7.84877 3.58
      vertex 10.0551 7.84877 3.58
    endloop
  endfacet
  facet normal -0 0 1
    outer loop
      vertex 7.13408 9.75537 3.58
      vertex 8.25893 9.62708 3.58
      vertex 7.65324 10.1224 3.58
    endloop
  endfacet
  facet normal 0 0 1
    outer loop
      vertex 7.13408 9.75537 3.58
      vertex 7.65324 10.1224 3.58
      vertex 7.13408 10.5192 3.58
    endloop
  endfacet
  facet normal 0 0 1
    outer loop
      vertex 8.25893 9.62708 3.58
      vertex 7.13408 9.75537 3.58
      vertex 9.02875 7.84877 3.58
    endloop
  endfacet
  facet normal -0 0 1
    outer loop
      vertex 6.25386 12.0529 3.58
      vertex 7.13408 10.5192 3.58
      vertex 7.13408 12.0529 3.58
    endloop
  endfacet
  facet normal 0 0 1
    outer loop
      vertex 7.13408 10.5192 3.58
      vertex 6.25386 12.0529 3.58
      vertex 7.13408 9.75537 3.58
    endloop
  endfacet
  facet normal 0 0 1
    outer loop
      vertex 6.25386 7.84877 3.58
      vertex 7.13408 9.75537 3.58
      vertex 6.25386 12.0529 3.58
    endloop
  endfacet
  facet normal 0 0 1
    outer loop
      vertex 7.13408 9.75537 3.58
      vertex 6.25386 7.84877 3.58
      vertex 7.13408 7.84877 3.58
    endloop
  endfacet
  facet normal -0.607252 -0.794509 0
    outer loop
      vertex 7.13408 10.5192 3.58
      vertex 7.65324 10.1224 4
      vertex 7.13408 10.5192 4
    endloop
  endfacet
  facet normal -0.607252 -0.794509 -0
    outer loop
      vertex 7.65324 10.1224 4
      vertex 7.13408 10.5192 3.58
      vertex 7.65324 10.1224 3.58
    endloop
  endfacet
  facet normal 0.787708 -0.616049 4.04471e-17
    outer loop
      vertex 7.65324 10.1224 4
      vertex 9.16304 12.0529 3.58
      vertex 9.16304 12.0529 4
    endloop
  endfacet
  facet normal 0.787708 -0.616049 4.04471e-17
    outer loop
      vertex 9.16304 12.0529 3.58
      vertex 7.65324 10.1224 4
      vertex 7.65324 10.1224 3.58
    endloop
  endfacet
  facet normal 0 -1 0
    outer loop
      vertex 9.16304 12.0529 3.58
      vertex 10.2014 12.0529 4
      vertex 9.16304 12.0529 4
    endloop
  endfacet
  facet normal 0 -1 -0
    outer loop
      vertex 10.2014 12.0529 4
      vertex 9.16304 12.0529 3.58
      vertex 10.2014 12.0529 3.58
    endloop
  endfacet
  facet normal -0.780584 0.625051 8.80497e-17
    outer loop
      vertex 8.25893 9.62708 3.58
      vertex 10.2014 12.0529 4
      vertex 10.2014 12.0529 3.58
    endloop
  endfacet
  facet normal -0.780584 0.625051 8.80497e-17
    outer loop
      vertex 10.2014 12.0529 4
      vertex 8.25893 9.62708 3.58
      vertex 8.25893 9.62708 4
    endloop
  endfacet
  facet normal -0.703565 -0.710631 0
    outer loop
      vertex 8.25893 9.62708 3.58
      vertex 10.0551 7.84877 4
      vertex 8.25893 9.62708 4
    endloop
  endfacet
  facet normal -0.703565 -0.710631 -0
    outer loop
      vertex 10.0551 7.84877 4
      vertex 8.25893 9.62708 3.58
      vertex 10.0551 7.84877 3.58
    endloop
  endfacet
  facet normal 0 1 -0
    outer loop
      vertex 10.0551 7.84877 3.58
      vertex 9.02875 7.84877 4
      vertex 10.0551 7.84877 4
    endloop
  endfacet
  facet normal 0 1 0
    outer loop
      vertex 9.02875 7.84877 4
      vertex 10.0551 7.84877 3.58
      vertex 9.02875 7.84877 3.58
    endloop
  endfacet
  facet normal 0.709322 0.704884 -1.1102e-16
    outer loop
      vertex 9.02875 7.84877 4
      vertex 7.13408 9.75537 3.58
      vertex 7.13408 9.75537 4
    endloop
  endfacet
  facet normal 0.709322 0.704884 -1.1102e-16
    outer loop
      vertex 7.13408 9.75537 3.58
      vertex 9.02875 7.84877 4
      vertex 9.02875 7.84877 3.58
    endloop
  endfacet
  facet normal -1 0 0
    outer loop
      vertex 7.13408 7.84877 3.58
      vertex 7.13408 9.75537 4
      vertex 7.13408 9.75537 3.58
    endloop
  endfacet
  facet normal -1 -0 0
    outer loop
      vertex 7.13408 9.75537 4
      vertex 7.13408 7.84877 3.58
      vertex 7.13408 7.84877 4
    endloop
  endfacet
  facet normal 0 1 -0
    outer loop
      vertex 7.13408 7.84877 3.58
      vertex 6.25386 7.84877 4
      vertex 7.13408 7.84877 4
    endloop
  endfacet
  facet normal 0 1 0
    outer loop
      vertex 6.25386 7.84877 4
      vertex 7.13408 7.84877 3.58
      vertex 6.25386 7.84877 3.58
    endloop
  endfacet
  facet normal 1 -0 0
    outer loop
      vertex 6.25386 7.84877 4
      vertex 6.25386 12.0529 3.58
      vertex 6.25386 12.0529 4
    endloop
  endfacet
  facet normal 1 0 0
    outer loop
      vertex 6.25386 12.0529 3.58
      vertex 6.25386 7.84877 4
      vertex 6.25386 7.84877 3.58
    endloop
  endfacet
  facet normal 0 -1 0
    outer loop
      vertex 6.25386 12.0529 3.58
      vertex 7.13408 12.0529 4
      vertex 6.25386 12.0529 4
    endloop
  endfacet
  facet normal 0 -1 -0
    outer loop
      vertex 7.13408 12.0529 4
      vertex 6.25386 12.0529 3.58
      vertex 7.13408 12.0529 3.58
    endloop
  endfacet
  facet normal -1 0 0
    outer loop
      vertex 7.13408 10.5192 3.58
      vertex 7.13408 12.0529 4
      vertex 7.13408 12.0529 3.58
    endloop
  endfacet
  facet normal -1 -0 0
    outer loop
      vertex 7.13408 12.0529 4
      vertex 7.13408 10.5192 3.58
      vertex 7.13408 10.5192 4
    endloop
  endfacet
  facet normal 0 -1 0
    outer loop
      vertex 16 9 1
      vertex 16.15 9 3
      vertex 16 9 3
    endloop
  endfacet
  facet normal 0 -1 -0
    outer loop
      vertex 16.15 9 3
      vertex 16 9 1
      vertex 16.15 9 1
    endloop
  endfacet
  facet normal 1 -0 0
    outer loop
      vertex 16.15 9 3
      vertex 16.15 11 1
      vertex 16.15 11 3
    endloop
  endfacet
  facet normal 1 0 0
    outer loop
      vertex 16.15 11 1
      vertex 16.15 9 3
      vertex 16.15 9 1
    endloop
  endfacet
  facet normal -0 0 1
    outer loop
      vertex 16 11 3
      vertex 16.15 9 3
      vertex 16.15 11 3
    endloop
  endfacet
  facet normal 0 0 1
    outer loop
      vertex 16.15 9 3
      vertex 16 11 3
      vertex 16 9 3
    endloop
  endfacet
  facet normal 0 1 -0
    outer loop
      vertex 16.15 11 1
      vertex 16 11 3
      vertex 16.15 11 3
    endloop
  endfacet
  facet normal 0 1 0
    outer loop
      vertex 16 11 3
      vertex 16.15 11 1
      vertex 16 11 1
    endloop
  endfacet
  facet normal 0 0 -1
    outer loop
      vertex 16 9 1
      vertex 16.15 11 1
      vertex 16.15 9 1
    endloop
  endfacet
  facet normal -0 0 -1
    outer loop
      vertex 16.15 11 1
      vertex 16 9 1
      vertex 16 11 1
    endloop
  endfacet
endsolid OpenSCAD_Model
