solid OpenSCAD_Model
  facet normal 0 0 -1
    outer loop
      vertex -24 24 4
      vertex 0 34 4
      vertex 0 24 4
    endloop
  endfacet
  facet normal -0 0 -1
    outer loop
      vertex 0 34 4
      vertex -24 24 4
      vertex -24 34 4
    endloop
  endfacet
  facet normal -1 0 0
    outer loop
      vertex -24 24 4
      vertex -24 34 8
      vertex -24 34 4
    endloop
  endfacet
  facet normal -1 -0 0
    outer loop
      vertex -24 34 8
      vertex -24 24 4
      vertex -24 24 8
    endloop
  endfacet
  facet normal 0 0 1
    outer loop
      vertex 0 34 8
      vertex -1.94713 29.4837 8
      vertex 0 24 8
    endloop
  endfacet
  facet normal 0 0 1
    outer loop
      vertex 0 34 8
      vertex -5.47095 30.8443 8
      vertex -1.94713 29.4837 8
    endloop
  endfacet
  facet normal 0 0 1
    outer loop
      vertex 0 34 8
      vertex -6.15123 30.8443 8
      vertex -5.47095 30.8443 8
    endloop
  endfacet
  facet normal 0 0 1
    outer loop
      vertex -6.15123 30.8443 8
      vertex -24 34 8
      vertex -6.15123 27.2459 8
    endloop
  endfacet
  facet normal -0 0 1
    outer loop
      vertex -24 34 8
      vertex -6.15123 30.8443 8
      vertex 0 34 8
    endloop
  endfacet
  facet normal -0 0 1
    outer loop
      vertex -1.94713 28.6035 8
      vertex 0 24 8
      vertex -1.94713 29.4837 8
    endloop
  endfacet
  facet normal 0 0 1
    outer loop
      vertex -5.47095 27.2459 8
      vertex -1.94713 28.6035 8
      vertex -5.47095 28.6035 8
    endloop
  endfacet
  facet normal 0 0 1
    outer loop
      vertex -1.94713 28.6035 8
      vertex -5.47095 27.2459 8
      vertex 0 24 8
    endloop
  endfacet
  facet normal -0 0 1
    outer loop
      vertex -6.15123 27.2459 8
      vertex 0 24 8
      vertex -5.47095 27.2459 8
    endloop
  endfacet
  facet normal 0 0 1
    outer loop
      vertex -24 24 8
      vertex -6.15123 27.2459 8
      vertex -24 34 8
    endloop
  endfacet
  facet normal 0 0 1
    outer loop
      vertex -6.15123 27.2459 8
      vertex -24 24 8
      vertex 0 24 8
    endloop
  endfacet
  facet normal 0 0 1
    outer loop
      vertex -1.94713 29.4837 8
      vertex -5.47095 30.8443 8
      vertex -5.47095 29.4837 8
    endloop
  endfacet
  facet normal 0 1 0
    outer loop
      vertex -5 34 7
      vertex 0 34 8
      vertex -3 34 7
    endloop
  endfacet
  facet normal 0 1 0
    outer loop
      vertex 0 34 8
      vertex -3 34 5
      vertex -3 34 7
    endloop
  endfacet
  facet normal 0 1 0
    outer loop
      vertex -3 34 5
      vertex 0 34 4
      vertex -5 34 5
    endloop
  endfacet
  facet normal 0 1 -0
    outer loop
      vertex 0 34 4
      vertex -3 34 5
      vertex 0 34 8
    endloop
  endfacet
  facet normal 0 1 0
    outer loop
      vertex 0 34 8
      vertex -5 34 7
      vertex -24 34 8
    endloop
  endfacet
  facet normal 0 1 -0
    outer loop
      vertex -5 34 5
      vertex -24 34 8
      vertex -5 34 7
    endloop
  endfacet
  facet normal 0 1 0
    outer loop
      vertex -24 34 4
      vertex -5 34 5
      vertex 0 34 4
    endloop
  endfacet
  facet normal 0 1 0
    outer loop
      vertex -5 34 5
      vertex -24 34 4
      vertex -24 34 8
    endloop
  endfacet
  facet normal 1 -0 0
    outer loop
      vertex 0 24 8
      vertex 0 34 4
      vertex 0 34 8
    endloop
  endfacet
  facet normal 1 0 0
    outer loop
      vertex 0 34 4
      vertex 0 24 8
      vertex 0 24 4
    endloop
  endfacet
  facet normal 0 -1 0
    outer loop
      vertex -24 24 4
      vertex 0 24 8
      vertex -24 24 8
    endloop
  endfacet
  facet normal 0 -1 -0
    outer loop
      vertex 0 24 8
      vertex -24 24 4
      vertex 0 24 4
    endloop
  endfacet
  facet normal -0 0 1
    outer loop
      vertex -6.15123 30.8443 7.6
      vertex -5.47095 29.4837 7.6
      vertex -5.47095 30.8443 7.6
    endloop
  endfacet
  facet normal 0 0 1
    outer loop
      vertex -5.47095 29.4837 7.6
      vertex -6.15123 30.8443 7.6
      vertex -5.47095 28.6035 7.6
    endloop
  endfacet
  facet normal 0 0 1
    outer loop
      vertex -6.15123 27.2459 7.6
      vertex -5.47095 28.6035 7.6
      vertex -6.15123 30.8443 7.6
    endloop
  endfacet
  facet normal 0 0 1
    outer loop
      vertex -5.47095 28.6035 7.6
      vertex -6.15123 27.2459 7.6
      vertex -5.47095 27.2459 7.6
    endloop
  endfacet
  facet normal -0 0 1
    outer loop
      vertex -5.47095 29.4837 7.6
      vertex -1.94713 28.6035 7.6
      vertex -1.94713 29.4837 7.6
    endloop
  endfacet
  facet normal 0 0 1
    outer loop
      vertex -1.94713 28.6035 7.6
      vertex -5.47095 29.4837 7.6
      vertex -5.47095 28.6035 7.6
    endloop
  endfacet
  facet normal -1 0 0
    outer loop
      vertex -5.47095 29.4837 7.6
      vertex -5.47095 30.8443 8
      vertex -5.47095 30.8443 7.6
    endloop
  endfacet
  facet normal -1 -0 0
    outer loop
      vertex -5.47095 30.8443 8
      vertex -5.47095 29.4837 7.6
      vertex -5.47095 29.4837 8
    endloop
  endfacet
  facet normal 0 -1 0
    outer loop
      vertex -6.15123 30.8443 7.6
      vertex -5.47095 30.8443 8
      vertex -6.15123 30.8443 8
    endloop
  endfacet
  facet normal 0 -1 -0
    outer loop
      vertex -5.47095 30.8443 8
      vertex -6.15123 30.8443 7.6
      vertex -5.47095 30.8443 7.6
    endloop
  endfacet
  facet normal 1 -0 0
    outer loop
      vertex -6.15123 27.2459 8
      vertex -6.15123 30.8443 7.6
      vertex -6.15123 30.8443 8
    endloop
  endfacet
  facet normal 1 0 0
    outer loop
      vertex -6.15123 30.8443 7.6
      vertex -6.15123 27.2459 8
      vertex -6.15123 27.2459 7.6
    endloop
  endfacet
  facet normal 0 1 -0
    outer loop
      vertex -5.47095 27.2459 7.6
      vertex -6.15123 27.2459 8
      vertex -5.47095 27.2459 8
    endloop
  endfacet
  facet normal 0 1 0
    outer loop
      vertex -6.15123 27.2459 8
      vertex -5.47095 27.2459 7.6
      vertex -6.15123 27.2459 7.6
    endloop
  endfacet
  facet normal -1 0 0
    outer loop
      vertex -5.47095 27.2459 7.6
      vertex -5.47095 28.6035 8
      vertex -5.47095 28.6035 7.6
    endloop
  endfacet
  facet normal -1 -0 0
    outer loop
      vertex -5.47095 28.6035 8
      vertex -5.47095 27.2459 7.6
      vertex -5.47095 27.2459 8
    endloop
  endfacet
  facet normal 0 1 -0
    outer loop
      vertex -1.94713 28.6035 7.6
      vertex -5.47095 28.6035 8
      vertex -1.94713 28.6035 8
    endloop
  endfacet
  facet normal 0 1 0
    outer loop
      vertex -5.47095 28.6035 8
      vertex -1.94713 28.6035 7.6
      vertex -5.47095 28.6035 7.6
    endloop
  endfacet
  facet normal -1 0 0
    outer loop
      vertex -1.94713 28.6035 7.6
      vertex -1.94713 29.4837 8
      vertex -1.94713 29.4837 7.6
    endloop
  endfacet
  facet normal -1 -0 0
    outer loop
      vertex -1.94713 29.4837 8
      vertex -1.94713 28.6035 7.6
      vertex -1.94713 28.6035 8
    endloop
  endfacet
  facet normal 0 -1 0
    outer loop
      vertex -5.47095 29.4837 7.6
      vertex -1.94713 29.4837 8
      vertex -5.47095 29.4837 8
    endloop
  endfacet
  facet normal 0 -1 -0
    outer loop
      vertex -1.94713 29.4837 8
      vertex -5.47095 29.4837 7.6
      vertex -1.94713 29.4837 7.6
    endloop
  endfacet
  facet normal 0 0 -1
    outer loop
      vertex -5 34 5
      vertex -3 34.15 5
      vertex -3 34 5
    endloop
  endfacet
  facet normal -0 0 -1
    outer loop
      vertex -3 34.15 5
      vertex -5 34 5
      vertex -5 34.15 5
    endloop
  endfacet
  facet normal -1 0 0
    outer loop
      vertex -5 34 5
      vertex -5 34.15 7
      vertex -5 34.15 5
    endloop
  endfacet
  facet normal -1 -0 0
    outer loop
      vertex -5 34.15 7
      vertex -5 34 5
      vertex -5 34 7
    endloop
  endfacet
  facet normal -0 0 1
    outer loop
      vertex -5 34.15 7
      vertex -3 34 7
      vertex -3 34.15 7
    endloop
  endfacet
  facet normal 0 0 1
    outer loop
      vertex -3 34 7
      vertex -5 34.15 7
      vertex -5 34 7
    endloop
  endfacet
  facet normal 0 1 -0
    outer loop
      vertex -3 34.15 5
      vertex -5 34.15 7
      vertex -3 34.15 7
    endloop
  endfacet
  facet normal 0 1 0
    outer loop
      vertex -5 34.15 7
      vertex -3 34.15 5
      vertex -5 34.15 5
    endloop
  endfacet
  facet normal 1 -0 0
    outer loop
      vertex -3 34 7
      vertex -3 34.15 5
      vertex -3 34.15 7
    endloop
  endfacet
  facet normal 1 0 0
    outer loop
      vertex -3 34.15 5
      vertex -3 34 7
      vertex -3 34 5
    endloop
  endfacet
endsolid OpenSCAD_Model
