solid OpenSCAD_Model
  facet normal -0 0 1
    outer loop
      vertex 6.58606 198.456 3.58
      vertex 7.46628 196.913 3.58
      vertex 7.46628 198.456 3.58
    endloop
  endfacet
  facet normal 0 0 1
    outer loop
      vertex 7.46628 196.913 3.58
      vertex 6.58606 198.456 3.58
      vertex 7.46628 196.233 3.58
    endloop
  endfacet
  facet normal 0 0 1
    outer loop
      vertex 6.58606 194.252 3.58
      vertex 7.46628 196.233 3.58
      vertex 6.58606 198.456 3.58
    endloop
  endfacet
  facet normal -0 0 1
    outer loop
      vertex 7.46628 196.913 3.58
      vertex 9.61755 196.233 3.58
      vertex 9.61755 196.913 3.58
    endloop
  endfacet
  facet normal 0 0 1
    outer loop
      vertex 9.61755 196.233 3.58
      vertex 7.46628 196.913 3.58
      vertex 7.46628 196.233 3.58
    endloop
  endfacet
  facet normal -0 0 1
    outer loop
      vertex 7.46628 194.932 3.58
      vertex 9.68619 194.252 3.58
      vertex 9.68619 194.932 3.58
    endloop
  endfacet
  facet normal 0 0 1
    outer loop
      vertex 7.46628 194.932 3.58
      vertex 6.58606 194.252 3.58
      vertex 9.68619 194.252 3.58
    endloop
  endfacet
  facet normal 0 0 1
    outer loop
      vertex 7.46628 196.233 3.58
      vertex 6.58606 194.252 3.58
      vertex 7.46628 194.932 3.58
    endloop
  endfacet
  facet normal 0 -1 0
    outer loop
      vertex 7.46628 196.913 3.58
      vertex 9.61755 196.913 4
      vertex 7.46628 196.913 4
    endloop
  endfacet
  facet normal 0 -1 -0
    outer loop
      vertex 9.61755 196.913 4
      vertex 7.46628 196.913 3.58
      vertex 9.61755 196.913 3.58
    endloop
  endfacet
  facet normal -1 0 0
    outer loop
      vertex 9.61755 196.233 3.58
      vertex 9.61755 196.913 4
      vertex 9.61755 196.913 3.58
    endloop
  endfacet
  facet normal -1 -0 0
    outer loop
      vertex 9.61755 196.913 4
      vertex 9.61755 196.233 3.58
      vertex 9.61755 196.233 4
    endloop
  endfacet
  facet normal 0 1 -0
    outer loop
      vertex 9.61755 196.233 3.58
      vertex 7.46628 196.233 4
      vertex 9.61755 196.233 4
    endloop
  endfacet
  facet normal 0 1 0
    outer loop
      vertex 7.46628 196.233 4
      vertex 9.61755 196.233 3.58
      vertex 7.46628 196.233 3.58
    endloop
  endfacet
  facet normal -1 0 0
    outer loop
      vertex 7.46628 194.932 3.58
      vertex 7.46628 196.233 4
      vertex 7.46628 196.233 3.58
    endloop
  endfacet
  facet normal -1 -0 0
    outer loop
      vertex 7.46628 196.233 4
      vertex 7.46628 194.932 3.58
      vertex 7.46628 194.932 4
    endloop
  endfacet
  facet normal 0 -1 0
    outer loop
      vertex 7.46628 194.932 3.58
      vertex 9.68619 194.932 4
      vertex 7.46628 194.932 4
    endloop
  endfacet
  facet normal 0 -1 -0
    outer loop
      vertex 9.68619 194.932 4
      vertex 7.46628 194.932 3.58
      vertex 9.68619 194.932 3.58
    endloop
  endfacet
  facet normal -1 0 0
    outer loop
      vertex 9.68619 194.252 3.58
      vertex 9.68619 194.932 4
      vertex 9.68619 194.932 3.58
    endloop
  endfacet
  facet normal -1 -0 0
    outer loop
      vertex 9.68619 194.932 4
      vertex 9.68619 194.252 3.58
      vertex 9.68619 194.252 4
    endloop
  endfacet
  facet normal 0 1 -0
    outer loop
      vertex 9.68619 194.252 3.58
      vertex 6.58606 194.252 4
      vertex 9.68619 194.252 4
    endloop
  endfacet
  facet normal 0 1 0
    outer loop
      vertex 6.58606 194.252 4
      vertex 9.68619 194.252 3.58
      vertex 6.58606 194.252 3.58
    endloop
  endfacet
  facet normal 1 -0 0
    outer loop
      vertex 6.58606 194.252 4
      vertex 6.58606 198.456 3.58
      vertex 6.58606 198.456 4
    endloop
  endfacet
  facet normal 1 0 0
    outer loop
      vertex 6.58606 198.456 3.58
      vertex 6.58606 194.252 4
      vertex 6.58606 194.252 3.58
    endloop
  endfacet
  facet normal 0 -1 0
    outer loop
      vertex 6.58606 198.456 3.58
      vertex 7.46628 198.456 4
      vertex 6.58606 198.456 4
    endloop
  endfacet
  facet normal 0 -1 -0
    outer loop
      vertex 7.46628 198.456 4
      vertex 6.58606 198.456 3.58
      vertex 7.46628 198.456 3.58
    endloop
  endfacet
  facet normal -1 0 0
    outer loop
      vertex 7.46628 196.913 3.58
      vertex 7.46628 198.456 4
      vertex 7.46628 198.456 3.58
    endloop
  endfacet
  facet normal -1 -0 0
    outer loop
      vertex 7.46628 198.456 4
      vertex 7.46628 196.913 3.58
      vertex 7.46628 196.913 4
    endloop
  endfacet
  facet normal -0 0 1
    outer loop
      vertex 24.5861 198.456 3.58
      vertex 25.4663 196.913 3.58
      vertex 25.4663 198.456 3.58
    endloop
  endfacet
  facet normal 0 0 1
    outer loop
      vertex 25.4663 196.913 3.58
      vertex 24.5861 198.456 3.58
      vertex 25.4663 196.233 3.58
    endloop
  endfacet
  facet normal 0 0 1
    outer loop
      vertex 24.5861 194.252 3.58
      vertex 25.4663 196.233 3.58
      vertex 24.5861 198.456 3.58
    endloop
  endfacet
  facet normal -0 0 1
    outer loop
      vertex 25.4663 196.913 3.58
      vertex 27.6176 196.233 3.58
      vertex 27.6176 196.913 3.58
    endloop
  endfacet
  facet normal 0 0 1
    outer loop
      vertex 27.6176 196.233 3.58
      vertex 25.4663 196.913 3.58
      vertex 25.4663 196.233 3.58
    endloop
  endfacet
  facet normal -0 0 1
    outer loop
      vertex 25.4663 194.932 3.58
      vertex 27.6862 194.252 3.58
      vertex 27.6862 194.932 3.58
    endloop
  endfacet
  facet normal 0 0 1
    outer loop
      vertex 25.4663 194.932 3.58
      vertex 24.5861 194.252 3.58
      vertex 27.6862 194.252 3.58
    endloop
  endfacet
  facet normal 0 0 1
    outer loop
      vertex 25.4663 196.233 3.58
      vertex 24.5861 194.252 3.58
      vertex 25.4663 194.932 3.58
    endloop
  endfacet
  facet normal 0 -1 0
    outer loop
      vertex 25.4663 196.913 3.58
      vertex 27.6176 196.913 4
      vertex 25.4663 196.913 4
    endloop
  endfacet
  facet normal 0 -1 -0
    outer loop
      vertex 27.6176 196.913 4
      vertex 25.4663 196.913 3.58
      vertex 27.6176 196.913 3.58
    endloop
  endfacet
  facet normal -1 0 0
    outer loop
      vertex 27.6176 196.233 3.58
      vertex 27.6176 196.913 4
      vertex 27.6176 196.913 3.58
    endloop
  endfacet
  facet normal -1 -0 0
    outer loop
      vertex 27.6176 196.913 4
      vertex 27.6176 196.233 3.58
      vertex 27.6176 196.233 4
    endloop
  endfacet
  facet normal 0 1 -0
    outer loop
      vertex 27.6176 196.233 3.58
      vertex 25.4663 196.233 4
      vertex 27.6176 196.233 4
    endloop
  endfacet
  facet normal 0 1 0
    outer loop
      vertex 25.4663 196.233 4
      vertex 27.6176 196.233 3.58
      vertex 25.4663 196.233 3.58
    endloop
  endfacet
  facet normal -1 0 0
    outer loop
      vertex 25.4663 194.932 3.58
      vertex 25.4663 196.233 4
      vertex 25.4663 196.233 3.58
    endloop
  endfacet
  facet normal -1 -0 0
    outer loop
      vertex 25.4663 196.233 4
      vertex 25.4663 194.932 3.58
      vertex 25.4663 194.932 4
    endloop
  endfacet
  facet normal 0 -1 0
    outer loop
      vertex 25.4663 194.932 3.58
      vertex 27.6862 194.932 4
      vertex 25.4663 194.932 4
    endloop
  endfacet
  facet normal 0 -1 -0
    outer loop
      vertex 27.6862 194.932 4
      vertex 25.4663 194.932 3.58
      vertex 27.6862 194.932 3.58
    endloop
  endfacet
  facet normal -1 0 0
    outer loop
      vertex 27.6862 194.252 3.58
      vertex 27.6862 194.932 4
      vertex 27.6862 194.932 3.58
    endloop
  endfacet
  facet normal -1 -0 0
    outer loop
      vertex 27.6862 194.932 4
      vertex 27.6862 194.252 3.58
      vertex 27.6862 194.252 4
    endloop
  endfacet
  facet normal 0 1 -0
    outer loop
      vertex 27.6862 194.252 3.58
      vertex 24.5861 194.252 4
      vertex 27.6862 194.252 4
    endloop
  endfacet
  facet normal 0 1 0
    outer loop
      vertex 24.5861 194.252 4
      vertex 27.6862 194.252 3.58
      vertex 24.5861 194.252 3.58
    endloop
  endfacet
  facet normal 1 -0 0
    outer loop
      vertex 24.5861 194.252 4
      vertex 24.5861 198.456 3.58
      vertex 24.5861 198.456 4
    endloop
  endfacet
  facet normal 1 0 0
    outer loop
      vertex 24.5861 198.456 3.58
      vertex 24.5861 194.252 4
      vertex 24.5861 194.252 3.58
    endloop
  endfacet
  facet normal 0 -1 0
    outer loop
      vertex 24.5861 198.456 3.58
      vertex 25.4663 198.456 4
      vertex 24.5861 198.456 4
    endloop
  endfacet
  facet normal 0 -1 -0
    outer loop
      vertex 25.4663 198.456 4
      vertex 24.5861 198.456 3.58
      vertex 25.4663 198.456 3.58
    endloop
  endfacet
  facet normal -1 0 0
    outer loop
      vertex 25.4663 196.913 3.58
      vertex 25.4663 198.456 4
      vertex 25.4663 198.456 3.58
    endloop
  endfacet
  facet normal -1 -0 0
    outer loop
      vertex 25.4663 198.456 4
      vertex 25.4663 196.913 3.58
      vertex 25.4663 196.913 4
    endloop
  endfacet
  facet normal -0 0 1
    outer loop
      vertex 42.5861 198.456 3.58
      vertex 43.4663 196.913 3.58
      vertex 43.4663 198.456 3.58
    endloop
  endfacet
  facet normal 0 0 1
    outer loop
      vertex 43.4663 196.913 3.58
      vertex 42.5861 198.456 3.58
      vertex 43.4663 196.233 3.58
    endloop
  endfacet
  facet normal 0 0 1
    outer loop
      vertex 42.5861 194.252 3.58
      vertex 43.4663 196.233 3.58
      vertex 42.5861 198.456 3.58
    endloop
  endfacet
  facet normal -0 0 1
    outer loop
      vertex 43.4663 196.913 3.58
      vertex 45.6176 196.233 3.58
      vertex 45.6176 196.913 3.58
    endloop
  endfacet
  facet normal 0 0 1
    outer loop
      vertex 45.6176 196.233 3.58
      vertex 43.4663 196.913 3.58
      vertex 43.4663 196.233 3.58
    endloop
  endfacet
  facet normal -0 0 1
    outer loop
      vertex 43.4663 194.932 3.58
      vertex 45.6862 194.252 3.58
      vertex 45.6862 194.932 3.58
    endloop
  endfacet
  facet normal 0 0 1
    outer loop
      vertex 43.4663 194.932 3.58
      vertex 42.5861 194.252 3.58
      vertex 45.6862 194.252 3.58
    endloop
  endfacet
  facet normal 0 0 1
    outer loop
      vertex 43.4663 196.233 3.58
      vertex 42.5861 194.252 3.58
      vertex 43.4663 194.932 3.58
    endloop
  endfacet
  facet normal 0 -1 0
    outer loop
      vertex 43.4663 196.913 3.58
      vertex 45.6176 196.913 4
      vertex 43.4663 196.913 4
    endloop
  endfacet
  facet normal 0 -1 -0
    outer loop
      vertex 45.6176 196.913 4
      vertex 43.4663 196.913 3.58
      vertex 45.6176 196.913 3.58
    endloop
  endfacet
  facet normal -1 0 0
    outer loop
      vertex 45.6176 196.233 3.58
      vertex 45.6176 196.913 4
      vertex 45.6176 196.913 3.58
    endloop
  endfacet
  facet normal -1 -0 0
    outer loop
      vertex 45.6176 196.913 4
      vertex 45.6176 196.233 3.58
      vertex 45.6176 196.233 4
    endloop
  endfacet
  facet normal 0 1 -0
    outer loop
      vertex 45.6176 196.233 3.58
      vertex 43.4663 196.233 4
      vertex 45.6176 196.233 4
    endloop
  endfacet
  facet normal 0 1 0
    outer loop
      vertex 43.4663 196.233 4
      vertex 45.6176 196.233 3.58
      vertex 43.4663 196.233 3.58
    endloop
  endfacet
  facet normal -1 0 0
    outer loop
      vertex 43.4663 194.932 3.58
      vertex 43.4663 196.233 4
      vertex 43.4663 196.233 3.58
    endloop
  endfacet
  facet normal -1 -0 0
    outer loop
      vertex 43.4663 196.233 4
      vertex 43.4663 194.932 3.58
      vertex 43.4663 194.932 4
    endloop
  endfacet
  facet normal 0 -1 0
    outer loop
      vertex 43.4663 194.932 3.58
      vertex 45.6862 194.932 4
      vertex 43.4663 194.932 4
    endloop
  endfacet
  facet normal 0 -1 -0
    outer loop
      vertex 45.6862 194.932 4
      vertex 43.4663 194.932 3.58
      vertex 45.6862 194.932 3.58
    endloop
  endfacet
  facet normal -1 0 0
    outer loop
      vertex 45.6862 194.252 3.58
      vertex 45.6862 194.932 4
      vertex 45.6862 194.932 3.58
    endloop
  endfacet
  facet normal -1 -0 0
    outer loop
      vertex 45.6862 194.932 4
      vertex 45.6862 194.252 3.58
      vertex 45.6862 194.252 4
    endloop
  endfacet
  facet normal 0 1 -0
    outer loop
      vertex 45.6862 194.252 3.58
      vertex 42.5861 194.252 4
      vertex 45.6862 194.252 4
    endloop
  endfacet
  facet normal 0 1 0
    outer loop
      vertex 42.5861 194.252 4
      vertex 45.6862 194.252 3.58
      vertex 42.5861 194.252 3.58
    endloop
  endfacet
  facet normal 1 -0 0
    outer loop
      vertex 42.5861 194.252 4
      vertex 42.5861 198.456 3.58
      vertex 42.5861 198.456 4
    endloop
  endfacet
  facet normal 1 0 0
    outer loop
      vertex 42.5861 198.456 3.58
      vertex 42.5861 194.252 4
      vertex 42.5861 194.252 3.58
    endloop
  endfacet
  facet normal 0 -1 0
    outer loop
      vertex 42.5861 198.456 3.58
      vertex 43.4663 198.456 4
      vertex 42.5861 198.456 4
    endloop
  endfacet
  facet normal 0 -1 -0
    outer loop
      vertex 43.4663 198.456 4
      vertex 42.5861 198.456 3.58
      vertex 43.4663 198.456 3.58
    endloop
  endfacet
  facet normal -1 0 0
    outer loop
      vertex 43.4663 196.913 3.58
      vertex 43.4663 198.456 4
      vertex 43.4663 198.456 3.58
    endloop
  endfacet
  facet normal -1 -0 0
    outer loop
      vertex 43.4663 198.456 4
      vertex 43.4663 196.913 3.58
      vertex 43.4663 196.913 4
    endloop
  endfacet
  facet normal 1 -0 0
    outer loop
      vertex 16.75 194.903 4
      vertex 16.75 197.903 3.98
      vertex 16.75 197.903 4
    endloop
  endfacet
  facet normal 1 0 0
    outer loop
      vertex 16.75 197.903 3.98
      vertex 16.75 194.903 4
      vertex 16.75 194.903 3.98
    endloop
  endfacet
  facet normal 0 1 -0
    outer loop
      vertex 19.25 194.903 3.98
      vertex 16.75 194.903 4
      vertex 19.25 194.903 4
    endloop
  endfacet
  facet normal 0 1 0
    outer loop
      vertex 16.75 194.903 4
      vertex 19.25 194.903 3.98
      vertex 16.75 194.903 3.98
    endloop
  endfacet
  facet normal -1 0 0
    outer loop
      vertex 19.25 194.903 3.98
      vertex 19.25 197.903 4
      vertex 19.25 197.903 3.98
    endloop
  endfacet
  facet normal -1 -0 0
    outer loop
      vertex 19.25 197.903 4
      vertex 19.25 194.903 3.98
      vertex 19.25 194.903 4
    endloop
  endfacet
  facet normal 0 -1 0
    outer loop
      vertex 16.75 197.903 3.98
      vertex 19.25 197.903 4
      vertex 16.75 197.903 4
    endloop
  endfacet
  facet normal 0 -1 -0
    outer loop
      vertex 19.25 197.903 4
      vertex 16.75 197.903 3.98
      vertex 19.25 197.903 3.98
    endloop
  endfacet
  facet normal -0 0 1
    outer loop
      vertex 16.75 197.903 3.98
      vertex 19.25 194.903 3.98
      vertex 19.25 197.903 3.98
    endloop
  endfacet
  facet normal 0 0 1
    outer loop
      vertex 19.25 194.903 3.98
      vertex 16.75 197.903 3.98
      vertex 16.75 194.903 3.98
    endloop
  endfacet
  facet normal 1 -0 0
    outer loop
      vertex 32.75 194.903 4
      vertex 32.75 197.903 3.98
      vertex 32.75 197.903 4
    endloop
  endfacet
  facet normal 1 0 0
    outer loop
      vertex 32.75 197.903 3.98
      vertex 32.75 194.903 4
      vertex 32.75 194.903 3.98
    endloop
  endfacet
  facet normal 0 1 -0
    outer loop
      vertex 35.25 194.903 3.98
      vertex 32.75 194.903 4
      vertex 35.25 194.903 4
    endloop
  endfacet
  facet normal 0 1 0
    outer loop
      vertex 32.75 194.903 4
      vertex 35.25 194.903 3.98
      vertex 32.75 194.903 3.98
    endloop
  endfacet
  facet normal -1 0 0
    outer loop
      vertex 35.25 194.903 3.98
      vertex 35.25 197.903 4
      vertex 35.25 197.903 3.98
    endloop
  endfacet
  facet normal -1 -0 0
    outer loop
      vertex 35.25 197.903 4
      vertex 35.25 194.903 3.98
      vertex 35.25 194.903 4
    endloop
  endfacet
  facet normal 0 -1 0
    outer loop
      vertex 32.75 197.903 3.98
      vertex 35.25 197.903 4
      vertex 32.75 197.903 4
    endloop
  endfacet
  facet normal 0 -1 -0
    outer loop
      vertex 35.25 197.903 4
      vertex 32.75 197.903 3.98
      vertex 35.25 197.903 3.98
    endloop
  endfacet
  facet normal -0 0 1
    outer loop
      vertex 32.75 197.903 3.98
      vertex 35.25 194.903 3.98
      vertex 35.25 197.903 3.98
    endloop
  endfacet
  facet normal 0 0 1
    outer loop
      vertex 35.25 194.903 3.98
      vertex 32.75 197.903 3.98
      vertex 32.75 194.903 3.98
    endloop
  endfacet
  facet normal 0 1 -0
    outer loop
      vertex 22.345 62.383 0.98
      vertex 22.125 62.383 3.02
      vertex 22.345 62.383 3.02
    endloop
  endfacet
  facet normal 0 1 0
    outer loop
      vertex 22.125 62.383 3.02
      vertex 22.345 62.383 0.98
      vertex 22.125 62.383 0.98
    endloop
  endfacet
  facet normal -1 0 0
    outer loop
      vertex 22.345 62.383 0.98
      vertex 22.345 64.423 3.02
      vertex 22.345 64.423 0.98
    endloop
  endfacet
  facet normal -1 -0 0
    outer loop
      vertex 22.345 64.423 3.02
      vertex 22.345 62.383 0.98
      vertex 22.345 62.383 3.02
    endloop
  endfacet
  facet normal 0 0 -1
    outer loop
      vertex 22.125 62.383 3.02
      vertex 22.345 64.423 3.02
      vertex 22.345 62.383 3.02
    endloop
  endfacet
  facet normal -0 0 -1
    outer loop
      vertex 22.345 64.423 3.02
      vertex 22.125 62.383 3.02
      vertex 22.125 64.423 3.02
    endloop
  endfacet
  facet normal 0 -1 0
    outer loop
      vertex 22.125 64.423 0.98
      vertex 22.345 64.423 3.02
      vertex 22.125 64.423 3.02
    endloop
  endfacet
  facet normal 0 -1 -0
    outer loop
      vertex 22.345 64.423 3.02
      vertex 22.125 64.423 0.98
      vertex 22.345 64.423 0.98
    endloop
  endfacet
  facet normal -0 0 1
    outer loop
      vertex 22.125 64.423 0.98
      vertex 22.345 62.383 0.98
      vertex 22.345 64.423 0.98
    endloop
  endfacet
  facet normal 0 0 1
    outer loop
      vertex 22.345 62.383 0.98
      vertex 22.125 64.423 0.98
      vertex 22.125 62.383 0.98
    endloop
  endfacet
  facet normal 0 1 -0
    outer loop
      vertex 44.345 62.383 0.98
      vertex 44.125 62.383 3.02
      vertex 44.345 62.383 3.02
    endloop
  endfacet
  facet normal 0 1 0
    outer loop
      vertex 44.125 62.383 3.02
      vertex 44.345 62.383 0.98
      vertex 44.125 62.383 0.98
    endloop
  endfacet
  facet normal -1 0 0
    outer loop
      vertex 44.345 62.383 0.98
      vertex 44.345 64.423 3.02
      vertex 44.345 64.423 0.98
    endloop
  endfacet
  facet normal -1 -0 0
    outer loop
      vertex 44.345 64.423 3.02
      vertex 44.345 62.383 0.98
      vertex 44.345 62.383 3.02
    endloop
  endfacet
  facet normal 0 0 -1
    outer loop
      vertex 44.125 62.383 3.02
      vertex 44.345 64.423 3.02
      vertex 44.345 62.383 3.02
    endloop
  endfacet
  facet normal -0 0 -1
    outer loop
      vertex 44.345 64.423 3.02
      vertex 44.125 62.383 3.02
      vertex 44.125 64.423 3.02
    endloop
  endfacet
  facet normal 0 -1 0
    outer loop
      vertex 44.125 64.423 0.98
      vertex 44.345 64.423 3.02
      vertex 44.125 64.423 3.02
    endloop
  endfacet
  facet normal 0 -1 -0
    outer loop
      vertex 44.345 64.423 3.02
      vertex 44.125 64.423 0.98
      vertex 44.345 64.423 0.98
    endloop
  endfacet
  facet normal -0 0 1
    outer loop
      vertex 44.125 64.423 0.98
      vertex 44.345 62.383 0.98
      vertex 44.345 64.423 0.98
    endloop
  endfacet
  facet normal 0 0 1
    outer loop
      vertex 44.345 62.383 0.98
      vertex 44.125 64.423 0.98
      vertex 44.125 62.383 0.98
    endloop
  endfacet
  facet normal 1 -0 0
    outer loop
      vertex 7.875 61.278 4
      vertex 7.875 65.528 0
      vertex 7.875 65.528 4
    endloop
  endfacet
  facet normal 1 0 0
    outer loop
      vertex 7.875 65.528 0
      vertex 7.875 61.278 4
      vertex 7.875 61.278 0
    endloop
  endfacet
  facet normal 0 1 -0
    outer loop
      vertex 14 61.278 0
      vertex 7.875 61.278 4
      vertex 14 61.278 4
    endloop
  endfacet
  facet normal 0 1 0
    outer loop
      vertex 7.875 61.278 4
      vertex 14 61.278 0
      vertex 7.875 61.278 0
    endloop
  endfacet
  facet normal -1 0 0
    outer loop
      vertex 22.125 65.528 0
      vertex 22.125 64.423 0.98
      vertex 22.125 65.528 4
    endloop
  endfacet
  facet normal -1 0 0
    outer loop
      vertex 22.125 61.503 0
      vertex 22.125 64.423 0.98
      vertex 22.125 65.528 0
    endloop
  endfacet
  facet normal -1 -0 0
    outer loop
      vertex 22.125 62.383 0.98
      vertex 22.125 61.503 0
      vertex 22.125 62.383 3.02
    endloop
  endfacet
  facet normal -1 -0 0
    outer loop
      vertex 22.125 64.423 0.98
      vertex 22.125 61.503 0
      vertex 22.125 62.383 0.98
    endloop
  endfacet
  facet normal -1 0 0
    outer loop
      vertex 22.125 64.423 3.02
      vertex 22.125 65.528 4
      vertex 22.125 64.423 0.98
    endloop
  endfacet
  facet normal -1 0 0
    outer loop
      vertex 22.125 61.503 4
      vertex 22.125 64.423 3.02
      vertex 22.125 62.383 3.02
    endloop
  endfacet
  facet normal -1 0 0
    outer loop
      vertex 22.125 64.423 3.02
      vertex 22.125 61.503 4
      vertex 22.125 65.528 4
    endloop
  endfacet
  facet normal -1 0 0
    outer loop
      vertex 22.125 61.503 4
      vertex 22.125 62.383 3.02
      vertex 22.125 61.503 0
    endloop
  endfacet
  facet normal 0 -1 0
    outer loop
      vertex 7.875 65.528 0
      vertex 22.125 65.528 4
      vertex 7.875 65.528 4
    endloop
  endfacet
  facet normal 0 -1 -0
    outer loop
      vertex 22.125 65.528 4
      vertex 7.875 65.528 0
      vertex 22.125 65.528 0
    endloop
  endfacet
  facet normal 1 -0 0
    outer loop
      vertex 29.875 61.503 4
      vertex 29.875 65.528 0
      vertex 29.875 65.528 4
    endloop
  endfacet
  facet normal 1 0 0
    outer loop
      vertex 29.875 65.528 0
      vertex 29.875 61.503 4
      vertex 29.875 61.503 0
    endloop
  endfacet
  facet normal 0 1 -0
    outer loop
      vertex 44.125 61.278 0
      vertex 38 61.278 4
      vertex 44.125 61.278 4
    endloop
  endfacet
  facet normal 0 1 0
    outer loop
      vertex 38 61.278 4
      vertex 44.125 61.278 0
      vertex 38 61.278 0
    endloop
  endfacet
  facet normal -1 0 0
    outer loop
      vertex 44.125 65.528 0
      vertex 44.125 64.423 0.98
      vertex 44.125 65.528 4
    endloop
  endfacet
  facet normal -1 0 0
    outer loop
      vertex 44.125 65.528 0
      vertex 44.125 62.383 0.98
      vertex 44.125 64.423 0.98
    endloop
  endfacet
  facet normal -1 -0 0
    outer loop
      vertex 44.125 62.383 0.98
      vertex 44.125 61.278 0
      vertex 44.125 62.383 3.02
    endloop
  endfacet
  facet normal -1 0 0
    outer loop
      vertex 44.125 61.278 0
      vertex 44.125 62.383 0.98
      vertex 44.125 65.528 0
    endloop
  endfacet
  facet normal -1 0 0
    outer loop
      vertex 44.125 64.423 3.02
      vertex 44.125 65.528 4
      vertex 44.125 64.423 0.98
    endloop
  endfacet
  facet normal -1 0 0
    outer loop
      vertex 44.125 62.383 3.02
      vertex 44.125 65.528 4
      vertex 44.125 64.423 3.02
    endloop
  endfacet
  facet normal -1 0 0
    outer loop
      vertex 44.125 62.383 3.02
      vertex 44.125 61.278 4
      vertex 44.125 65.528 4
    endloop
  endfacet
  facet normal -1 0 0
    outer loop
      vertex 44.125 61.278 4
      vertex 44.125 62.383 3.02
      vertex 44.125 61.278 0
    endloop
  endfacet
  facet normal 0 -1 0
    outer loop
      vertex 29.875 65.528 0
      vertex 44.125 65.528 4
      vertex 29.875 65.528 4
    endloop
  endfacet
  facet normal 0 -1 -0
    outer loop
      vertex 44.125 65.528 4
      vertex 29.875 65.528 0
      vertex 44.125 65.528 0
    endloop
  endfacet
  facet normal -1 0 0
    outer loop
      vertex 0 1.2207e-07 0
      vertex 0 200.403 4
      vertex 0 200.403 0
    endloop
  endfacet
  facet normal -1 -0 0
    outer loop
      vertex 0 200.403 4
      vertex 0 1.2207e-07 0
      vertex 0 1.2207e-07 4
    endloop
  endfacet
  facet normal 0 -1 0
    outer loop
      vertex 0 1.2207e-07 0
      vertex 52 1.2207e-07 4
      vertex 0 1.2207e-07 4
    endloop
  endfacet
  facet normal 0 -1 -0
    outer loop
      vertex 52 1.2207e-07 4
      vertex 0 1.2207e-07 0
      vertex 52 1.2207e-07 0
    endloop
  endfacet
  facet normal 1 -0 0
    outer loop
      vertex 52 1.2207e-07 4
      vertex 52 200.403 0
      vertex 52 200.403 4
    endloop
  endfacet
  facet normal 1 0 0
    outer loop
      vertex 52 200.403 0
      vertex 52 1.2207e-07 4
      vertex 52 1.2207e-07 0
    endloop
  endfacet
  facet normal 0 1 -0
    outer loop
      vertex 52 200.403 0
      vertex 0 200.403 4
      vertex 52 200.403 4
    endloop
  endfacet
  facet normal 0 1 0
    outer loop
      vertex 0 200.403 4
      vertex 52 200.403 0
      vertex 0 200.403 0
    endloop
  endfacet
  facet normal 0 0 -1
    outer loop
      vertex 14 56.903 0
      vertex 7.875 61.278 0
      vertex 14 61.278 0
    endloop
  endfacet
  facet normal -0 0 -1
    outer loop
      vertex 7.875 61.278 0
      vertex 5.6715 56.903 0
      vertex 7.875 65.528 0
    endloop
  endfacet
  facet normal 0 0 -1
    outer loop
      vertex 5.6715 56.903 0
      vertex 7.875 61.278 0
      vertex 14 56.903 0
    endloop
  endfacet
  facet normal 0 0 -1
    outer loop
      vertex 29.875 61.503 0
      vertex 22.125 61.503 0
      vertex 29.875 65.528 0
    endloop
  endfacet
  facet normal 0 0 -1
    outer loop
      vertex 29.875 65.528 0
      vertex 42 81.403 0
      vertex 44.125 65.528 0
    endloop
  endfacet
  facet normal 0 0 -1
    outer loop
      vertex 22.125 65.528 0
      vertex 29.875 65.528 0
      vertex 22.125 61.503 0
    endloop
  endfacet
  facet normal 0 0 -1
    outer loop
      vertex 29.875 65.528 0
      vertex 22.125 65.528 0
      vertex 42 81.403 0
    endloop
  endfacet
  facet normal 0 0 -1
    outer loop
      vertex 22.125 65.528 0
      vertex 10 81.403 0
      vertex 42 81.403 0
    endloop
  endfacet
  facet normal 0 0 -1
    outer loop
      vertex 5.6715 56.903 0
      vertex 10 81.403 0
      vertex 7.875 65.528 0
    endloop
  endfacet
  facet normal 0 0 -1
    outer loop
      vertex 7.875 65.528 0
      vertex 10 81.403 0
      vertex 22.125 65.528 0
    endloop
  endfacet
  facet normal 0 0 -1
    outer loop
      vertex 38 56.903 0
      vertex 44.125 61.278 0
      vertex 46.3285 56.903 0
    endloop
  endfacet
  facet normal -0 0 -1
    outer loop
      vertex 44.125 61.278 0
      vertex 38 56.903 0
      vertex 38 61.278 0
    endloop
  endfacet
  facet normal 0 0 -1
    outer loop
      vertex 46.3285 56.903 0
      vertex 52 1.2207e-07 0
      vertex 46.3285 16.5 0
    endloop
  endfacet
  facet normal 0 0 -1
    outer loop
      vertex 52 1.2207e-07 0
      vertex 5.6715 16.5 0
      vertex 46.3285 16.5 0
    endloop
  endfacet
  facet normal -0 0 -1
    outer loop
      vertex 5.6715 16.5 0
      vertex 0 1.2207e-07 0
      vertex 5.6715 56.903 0
    endloop
  endfacet
  facet normal 0 0 -1
    outer loop
      vertex 0 1.2207e-07 0
      vertex 5.6715 16.5 0
      vertex 52 1.2207e-07 0
    endloop
  endfacet
  facet normal 0 0 -1
    outer loop
      vertex 52 1.2207e-07 0
      vertex 46.3285 56.903 0
      vertex 52 200.403 0
    endloop
  endfacet
  facet normal 0 0 -1
    outer loop
      vertex 44.125 65.528 0
      vertex 46.3285 56.903 0
      vertex 44.125 61.278 0
    endloop
  endfacet
  facet normal 0 0 -1
    outer loop
      vertex 42 81.403 0
      vertex 46.3285 56.903 0
      vertex 44.125 65.528 0
    endloop
  endfacet
  facet normal 0 0 -1
    outer loop
      vertex 46.3285 56.903 0
      vertex 42 81.403 0
      vertex 52 200.403 0
    endloop
  endfacet
  facet normal 0 0 -1
    outer loop
      vertex 42 176.403 0
      vertex 52 200.403 0
      vertex 42 81.403 0
    endloop
  endfacet
  facet normal 0 0 -1
    outer loop
      vertex 10 176.403 0
      vertex 52 200.403 0
      vertex 42 176.403 0
    endloop
  endfacet
  facet normal -0 0 -1
    outer loop
      vertex 10 81.403 0
      vertex 5.6715 56.903 0
      vertex 0 200.403 0
    endloop
  endfacet
  facet normal 0 0 -1
    outer loop
      vertex 0 200.403 0
      vertex 5.6715 56.903 0
      vertex 0 1.2207e-07 0
    endloop
  endfacet
  facet normal 0 0 -1
    outer loop
      vertex 10 176.403 0
      vertex 0 200.403 0
      vertex 52 200.403 0
    endloop
  endfacet
  facet normal 0 0 -1
    outer loop
      vertex 10 81.403 0
      vertex 0 200.403 0
      vertex 10 176.403 0
    endloop
  endfacet
  facet normal 0 0 1
    outer loop
      vertex 42 176.403 4
      vertex 45.6862 194.252 4
      vertex 42.5861 194.252 4
    endloop
  endfacet
  facet normal 0 0 1
    outer loop
      vertex 42 81.403 4
      vertex 45.6862 194.252 4
      vertex 42 176.403 4
    endloop
  endfacet
  facet normal 0 0 1
    outer loop
      vertex 45.6862 194.252 4
      vertex 42 81.403 4
      vertex 44.125 65.528 4
    endloop
  endfacet
  facet normal 0 0 1
    outer loop
      vertex 42 81.403 4
      vertex 29.875 65.528 4
      vertex 44.125 65.528 4
    endloop
  endfacet
  facet normal 0 0 1
    outer loop
      vertex 29.875 65.528 4
      vertex 22.125 65.528 4
      vertex 29.875 61.503 4
    endloop
  endfacet
  facet normal 0 0 1
    outer loop
      vertex 42 81.403 4
      vertex 22.125 65.528 4
      vertex 29.875 65.528 4
    endloop
  endfacet
  facet normal -0 0 1
    outer loop
      vertex 10 81.403 4
      vertex 22.125 65.528 4
      vertex 42 81.403 4
    endloop
  endfacet
  facet normal -0 0 1
    outer loop
      vertex 6.58606 194.252 4
      vertex 10 176.403 4
      vertex 9.68619 194.252 4
    endloop
  endfacet
  facet normal 0 0 1
    outer loop
      vertex 10 81.403 4
      vertex 7.875 65.528 4
      vertex 22.125 65.528 4
    endloop
  endfacet
  facet normal 0 0 1
    outer loop
      vertex 0 200.403 4
      vertex 10 176.403 4
      vertex 6.58606 194.252 4
    endloop
  endfacet
  facet normal 0 -0 1
    outer loop
      vertex 5.6715 56.903 4
      vertex 10 81.403 4
      vertex 0 200.403 4
    endloop
  endfacet
  facet normal 0 0 1
    outer loop
      vertex 10 176.403 4
      vertex 0 200.403 4
      vertex 10 81.403 4
    endloop
  endfacet
  facet normal 0 0 1
    outer loop
      vertex 52 200.403 4
      vertex 46.3285 56.903 4
      vertex 52 1.2207e-07 4
    endloop
  endfacet
  facet normal 0 0 1
    outer loop
      vertex 45.6862 194.252 4
      vertex 52 200.403 4
      vertex 45.6862 194.932 4
    endloop
  endfacet
  facet normal 0 0 1
    outer loop
      vertex 45.6176 196.233 4
      vertex 52 200.403 4
      vertex 45.6176 196.913 4
    endloop
  endfacet
  facet normal 0 0 1
    outer loop
      vertex 52 200.403 4
      vertex 43.4663 198.456 4
      vertex 45.6176 196.913 4
    endloop
  endfacet
  facet normal 0 0 1
    outer loop
      vertex 52 200.403 4
      vertex 42.5861 198.456 4
      vertex 43.4663 198.456 4
    endloop
  endfacet
  facet normal -0 0 1
    outer loop
      vertex 35.25 194.903 4
      vertex 42.5861 194.252 4
      vertex 42.5861 198.456 4
    endloop
  endfacet
  facet normal 0 0 1
    outer loop
      vertex 35.25 194.903 4
      vertex 42.5861 198.456 4
      vertex 35.25 197.903 4
    endloop
  endfacet
  facet normal 0 0 1
    outer loop
      vertex 52 200.403 4
      vertex 35.25 197.903 4
      vertex 42.5861 198.456 4
    endloop
  endfacet
  facet normal 0 0 1
    outer loop
      vertex 52 200.403 4
      vertex 32.75 197.903 4
      vertex 35.25 197.903 4
    endloop
  endfacet
  facet normal -0 0 1
    outer loop
      vertex 27.6176 196.233 4
      vertex 32.75 194.903 4
      vertex 32.75 197.903 4
    endloop
  endfacet
  facet normal 0 0 1
    outer loop
      vertex 27.6176 196.233 4
      vertex 32.75 197.903 4
      vertex 27.6176 196.913 4
    endloop
  endfacet
  facet normal 0 0 1
    outer loop
      vertex 32.75 197.903 4
      vertex 25.4663 198.456 4
      vertex 27.6176 196.913 4
    endloop
  endfacet
  facet normal 0 0 1
    outer loop
      vertex 52 200.403 4
      vertex 25.4663 198.456 4
      vertex 32.75 197.903 4
    endloop
  endfacet
  facet normal 0 0 1
    outer loop
      vertex 52 200.403 4
      vertex 24.5861 198.456 4
      vertex 25.4663 198.456 4
    endloop
  endfacet
  facet normal 0 0 1
    outer loop
      vertex 19.25 194.903 4
      vertex 24.5861 198.456 4
      vertex 19.25 197.903 4
    endloop
  endfacet
  facet normal 0 0 1
    outer loop
      vertex 24.5861 198.456 4
      vertex 16.75 197.903 4
      vertex 19.25 197.903 4
    endloop
  endfacet
  facet normal -0 0 1
    outer loop
      vertex 0 200.403 4
      vertex 24.5861 198.456 4
      vertex 52 200.403 4
    endloop
  endfacet
  facet normal -0 0 1
    outer loop
      vertex 9.61755 196.233 4
      vertex 16.75 194.903 4
      vertex 16.75 197.903 4
    endloop
  endfacet
  facet normal 0 0 1
    outer loop
      vertex 16.75 194.903 4
      vertex 9.68619 194.252 4
      vertex 10 176.403 4
    endloop
  endfacet
  facet normal 0 0 1
    outer loop
      vertex 9.68619 194.252 4
      vertex 16.75 194.903 4
      vertex 9.68619 194.932 4
    endloop
  endfacet
  facet normal 0 0 1
    outer loop
      vertex 9.61755 196.233 4
      vertex 16.75 197.903 4
      vertex 9.61755 196.913 4
    endloop
  endfacet
  facet normal 0 0 1
    outer loop
      vertex 16.75 197.903 4
      vertex 7.46628 198.456 4
      vertex 9.61755 196.913 4
    endloop
  endfacet
  facet normal 0 0 1
    outer loop
      vertex 24.5861 198.456 4
      vertex 0 200.403 4
      vertex 16.75 197.903 4
    endloop
  endfacet
  facet normal 0 0 1
    outer loop
      vertex 16.75 197.903 4
      vertex 0 200.403 4
      vertex 7.46628 198.456 4
    endloop
  endfacet
  facet normal 0 0 1
    outer loop
      vertex 0 200.403 4
      vertex 6.58606 194.252 4
      vertex 6.58606 198.456 4
    endloop
  endfacet
  facet normal 0 0 1
    outer loop
      vertex 0 1.2207e-07 4
      vertex 5.6715 56.903 4
      vertex 0 200.403 4
    endloop
  endfacet
  facet normal 0 0 1
    outer loop
      vertex 10 81.403 4
      vertex 5.6715 56.903 4
      vertex 7.875 65.528 4
    endloop
  endfacet
  facet normal 0 0 1
    outer loop
      vertex 7.46628 198.456 4
      vertex 0 200.403 4
      vertex 6.58606 198.456 4
    endloop
  endfacet
  facet normal -0 0 1
    outer loop
      vertex 46.3285 16.5 4
      vertex 52 1.2207e-07 4
      vertex 46.3285 56.903 4
    endloop
  endfacet
  facet normal -0 0 1
    outer loop
      vertex 5.6715 16.5 4
      vertex 52 1.2207e-07 4
      vertex 46.3285 16.5 4
    endloop
  endfacet
  facet normal 0 0 1
    outer loop
      vertex 5.6715 16.5 4
      vertex 0 1.2207e-07 4
      vertex 52 1.2207e-07 4
    endloop
  endfacet
  facet normal 0 0 1
    outer loop
      vertex 5.6715 56.903 4
      vertex 0 1.2207e-07 4
      vertex 5.6715 16.5 4
    endloop
  endfacet
  facet normal 0 0 1
    outer loop
      vertex 44.125 65.528 4
      vertex 52 200.403 4
      vertex 45.6862 194.252 4
    endloop
  endfacet
  facet normal 0 0 1
    outer loop
      vertex 52 200.403 4
      vertex 44.125 65.528 4
      vertex 46.3285 56.903 4
    endloop
  endfacet
  facet normal -0 0 1
    outer loop
      vertex 44.125 61.278 4
      vertex 46.3285 56.903 4
      vertex 44.125 65.528 4
    endloop
  endfacet
  facet normal 0 0 1
    outer loop
      vertex 38 56.903 4
      vertex 44.125 61.278 4
      vertex 38 61.278 4
    endloop
  endfacet
  facet normal 0 0 1
    outer loop
      vertex 44.125 61.278 4
      vertex 38 56.903 4
      vertex 46.3285 56.903 4
    endloop
  endfacet
  facet normal 0 0 1
    outer loop
      vertex 52 200.403 4
      vertex 45.6176 196.233 4
      vertex 45.6862 194.932 4
    endloop
  endfacet
  facet normal 0 0 1
    outer loop
      vertex 43.4663 194.932 4
      vertex 45.6176 196.233 4
      vertex 43.4663 196.233 4
    endloop
  endfacet
  facet normal 0 0 1
    outer loop
      vertex 45.6176 196.233 4
      vertex 43.4663 194.932 4
      vertex 45.6862 194.932 4
    endloop
  endfacet
  facet normal 0 0 1
    outer loop
      vertex 45.6176 196.913 4
      vertex 43.4663 198.456 4
      vertex 43.4663 196.913 4
    endloop
  endfacet
  facet normal 0 0 1
    outer loop
      vertex 42.5861 194.252 4
      vertex 35.25 194.903 4
      vertex 42 176.403 4
    endloop
  endfacet
  facet normal -0 0 1
    outer loop
      vertex 32.75 194.903 4
      vertex 42 176.403 4
      vertex 35.25 194.903 4
    endloop
  endfacet
  facet normal 0 0 1
    outer loop
      vertex 27.6862 194.252 4
      vertex 32.75 194.903 4
      vertex 27.6862 194.932 4
    endloop
  endfacet
  facet normal 0 0 1
    outer loop
      vertex 32.75 194.903 4
      vertex 27.6862 194.252 4
      vertex 42 176.403 4
    endloop
  endfacet
  facet normal -0 0 1
    outer loop
      vertex 24.5861 194.252 4
      vertex 42 176.403 4
      vertex 27.6862 194.252 4
    endloop
  endfacet
  facet normal 0 0 1
    outer loop
      vertex 24.5861 198.456 4
      vertex 19.25 194.903 4
      vertex 24.5861 194.252 4
    endloop
  endfacet
  facet normal 0 0 1
    outer loop
      vertex 10 176.403 4
      vertex 24.5861 194.252 4
      vertex 19.25 194.903 4
    endloop
  endfacet
  facet normal 0 0 1
    outer loop
      vertex 10 176.403 4
      vertex 19.25 194.903 4
      vertex 16.75 194.903 4
    endloop
  endfacet
  facet normal 0 0 1
    outer loop
      vertex 24.5861 194.252 4
      vertex 10 176.403 4
      vertex 42 176.403 4
    endloop
  endfacet
  facet normal 0 0 1
    outer loop
      vertex 32.75 194.903 4
      vertex 27.6176 196.233 4
      vertex 27.6862 194.932 4
    endloop
  endfacet
  facet normal 0 0 1
    outer loop
      vertex 25.4663 194.932 4
      vertex 27.6176 196.233 4
      vertex 25.4663 196.233 4
    endloop
  endfacet
  facet normal 0 0 1
    outer loop
      vertex 27.6176 196.233 4
      vertex 25.4663 194.932 4
      vertex 27.6862 194.932 4
    endloop
  endfacet
  facet normal 0 0 1
    outer loop
      vertex 27.6176 196.913 4
      vertex 25.4663 198.456 4
      vertex 25.4663 196.913 4
    endloop
  endfacet
  facet normal 0 0 1
    outer loop
      vertex 29.875 61.503 4
      vertex 22.125 65.528 4
      vertex 22.125 61.503 4
    endloop
  endfacet
  facet normal 0 0 1
    outer loop
      vertex 16.75 194.903 4
      vertex 9.61755 196.233 4
      vertex 9.68619 194.932 4
    endloop
  endfacet
  facet normal 0 0 1
    outer loop
      vertex 7.46628 194.932 4
      vertex 9.61755 196.233 4
      vertex 7.46628 196.233 4
    endloop
  endfacet
  facet normal 0 0 1
    outer loop
      vertex 9.61755 196.233 4
      vertex 7.46628 194.932 4
      vertex 9.68619 194.932 4
    endloop
  endfacet
  facet normal -0 0 1
    outer loop
      vertex 7.875 61.278 4
      vertex 14 56.903 4
      vertex 14 61.278 4
    endloop
  endfacet
  facet normal 0 0 1
    outer loop
      vertex 7.875 61.278 4
      vertex 5.6715 56.903 4
      vertex 14 56.903 4
    endloop
  endfacet
  facet normal 0 0 1
    outer loop
      vertex 7.875 65.528 4
      vertex 5.6715 56.903 4
      vertex 7.875 61.278 4
    endloop
  endfacet
  facet normal 0 0 1
    outer loop
      vertex 9.61755 196.913 4
      vertex 7.46628 198.456 4
      vertex 7.46628 196.913 4
    endloop
  endfacet
  facet normal 1 -0 0
    outer loop
      vertex 10 81.403 4
      vertex 10 176.403 0
      vertex 10 176.403 4
    endloop
  endfacet
  facet normal 1 0 0
    outer loop
      vertex 10 176.403 0
      vertex 10 81.403 4
      vertex 10 81.403 0
    endloop
  endfacet
  facet normal 0 1 -0
    outer loop
      vertex 42 81.403 0
      vertex 10 81.403 4
      vertex 42 81.403 4
    endloop
  endfacet
  facet normal 0 1 0
    outer loop
      vertex 10 81.403 4
      vertex 42 81.403 0
      vertex 10 81.403 0
    endloop
  endfacet
  facet normal -1 0 0
    outer loop
      vertex 42 81.403 0
      vertex 42 176.403 4
      vertex 42 176.403 0
    endloop
  endfacet
  facet normal -1 -0 0
    outer loop
      vertex 42 176.403 4
      vertex 42 81.403 0
      vertex 42 81.403 4
    endloop
  endfacet
  facet normal 0 -1 0
    outer loop
      vertex 10 176.403 0
      vertex 42 176.403 4
      vertex 10 176.403 4
    endloop
  endfacet
  facet normal 0 -1 -0
    outer loop
      vertex 42 176.403 4
      vertex 10 176.403 0
      vertex 42 176.403 0
    endloop
  endfacet
  facet normal 1 -0 0
    outer loop
      vertex 5.6715 16.5 4
      vertex 5.6715 56.903 0
      vertex 5.6715 56.903 4
    endloop
  endfacet
  facet normal 1 0 0
    outer loop
      vertex 5.6715 56.903 0
      vertex 5.6715 16.5 4
      vertex 5.6715 16.5 0
    endloop
  endfacet
  facet normal 0 1 -0
    outer loop
      vertex 46.3285 16.5 0
      vertex 5.6715 16.5 4
      vertex 46.3285 16.5 4
    endloop
  endfacet
  facet normal 0 1 0
    outer loop
      vertex 5.6715 16.5 4
      vertex 46.3285 16.5 0
      vertex 5.6715 16.5 0
    endloop
  endfacet
  facet normal -1 0 0
    outer loop
      vertex 46.3285 16.5 0
      vertex 46.3285 56.903 4
      vertex 46.3285 56.903 0
    endloop
  endfacet
  facet normal -1 -0 0
    outer loop
      vertex 46.3285 56.903 4
      vertex 46.3285 16.5 0
      vertex 46.3285 16.5 4
    endloop
  endfacet
  facet normal 0 -1 0
    outer loop
      vertex 5.6715 56.903 0
      vertex 14 56.903 4
      vertex 5.6715 56.903 4
    endloop
  endfacet
  facet normal 0 -1 -0
    outer loop
      vertex 14 56.903 4
      vertex 5.6715 56.903 0
      vertex 14 56.903 0
    endloop
  endfacet
  facet normal 0 -1 0
    outer loop
      vertex 38 56.903 0
      vertex 46.3285 56.903 4
      vertex 38 56.903 4
    endloop
  endfacet
  facet normal 0 -1 -0
    outer loop
      vertex 46.3285 56.903 4
      vertex 38 56.903 0
      vertex 46.3285 56.903 0
    endloop
  endfacet
  facet normal 1 -0 0
    outer loop
      vertex 14 56.903 4
      vertex 14 61.278 0
      vertex 14 61.278 4
    endloop
  endfacet
  facet normal 1 0 0
    outer loop
      vertex 14 61.278 0
      vertex 14 56.903 4
      vertex 14 56.903 0
    endloop
  endfacet
  facet normal -1 0 0
    outer loop
      vertex 38 56.903 0
      vertex 38 61.278 4
      vertex 38 61.278 0
    endloop
  endfacet
  facet normal -1 -0 0
    outer loop
      vertex 38 61.278 4
      vertex 38 56.903 0
      vertex 38 56.903 4
    endloop
  endfacet
  facet normal 0 -1 0
    outer loop
      vertex 22.125 61.503 0
      vertex 29.875 61.503 4
      vertex 22.125 61.503 4
    endloop
  endfacet
  facet normal 0 -1 -0
    outer loop
      vertex 29.875 61.503 4
      vertex 22.125 61.503 0
      vertex 29.875 61.503 0
    endloop
  endfacet
endsolid OpenSCAD_Model
